<svg viewBox="0 0 32 31" xmlns="http://www.w3.org/2000/svg"><path fill="#FFFD06" d="M30.95 15.74c-1.17-.62-8.83.64-8.78-.18 1.17-1.29 4.75-3.28 5.28-4.94 1.16-3.59-4.35 2-4.79 2.9v0c-.61.11-1.51 1.66-1.95 1.51 -.51-.17-.85-5.75-.91-6.23 -.18-1.26-.29-8.61-1.04-8.79 -1.95-.46.01 12.58.37 14.2 -.01.13.09.61-.1.67 -.45.16-4.48-3.76-4.73-4.18 -.49-.79-3.81-3.32-2.82-1.03 1.27 1.95 3.8 3.6 5.5 5.21v0c.34.29.58.65.73 1.06 -.27.89-9.98.45-11.25.47 -.62.01-6.63.07-6.46.53 .44 1.21 3.24.75 4.27.49 1.58.35 5.19.63 6.84.19v0c.42-.05 6.84-.3 6.83-.05 -.77.58-1.51 1.16-2.21 1.82 -1.72 1.55-4.45 3.44-5.58 5.54 .32.17 5.24-3.94 5.26-3.96 1.23-.77 2.75-1.44 3.72-2.53 1.27.34.31 12.12 2.12 11.92 .1-.01.09-1.78.08-1.45v0c0-.37-.1-.79-.01-1.18v0c.05-1.92-1.32-8-.34-9.17 .97-.26 2.55 2.29 3.37 2.96v0c.01.23.71.96.86.99v0c1.26 1.14 6.18 4.31 2.56.75 -.58-.58-2.05-2.71-2.71-2.81v0c-.78-1.15-3.18-2.02-3-3.35 1.82.23 5.15-.12 6.92-.65v0s-.01 0-.01 0c.88-.07 2.17-.27 2.99-.71 -.34 0-.67 0-1.01 0Z"/></svg>